{"title":"Taylor Swift - Back To December (HDTV Live 2010).mp4","uid":5980143,"size":186378903,"categoryP":"video","categoryS":"music_videos","magnet":"?xt=urn:btih:62f3a29f99b6ef02a1931fe58d9a9d3e733b011e&amp;dn=Taylor+Swift+-+Back+To+December+%28HDTV+Live+2010%29.mp4&amp;tr=udp%3A%2F%2Ftracker.openbittorrent.com%3A80&amp;tr=udp%3A%2F%2Fopen.demonii.com%3A1337&amp;tr=udp%3A%2F%2Ftracker.coppersurfer.tk%3A6969&amp;tr=udp%3A%2F%2Fexodus.desync.com%3A6969","seeders":0,"leechers":0,"uploader":"wushan","files":1,"time":1290561818,"description":"            Taylor Swift - Back To December (HDTV Live 2010).mp4\n      \n\n\n Format : MPEG-4\n      Format profile : Base Media / Version 2\n      Codec ID : mp42\n      File size : 178 MiB\n      Duration : 4mn 43s\n      Overall bit rate : 5 257 Kbps\n      Encoded date : UTC 2010-11-22 06:58:03\n      Tagged date : UTC 2010-11-22 06:58:09\n   Video #1\n      Format : AVC\n      Format/Info : Advanced Video Codec\n      Format profile : &lt;a class=&quot;__cf_email__&quot; href=&quot;/cdn-cgi/l/email-protection&quot; data-cfemail=&quot;94d6f5e7f1f8fdfaf1d4d8a7baa5&quot;&gt;[email&amp;#160;protected]&lt;/a&gt;&lt;script cf-hash='f9e31' type=&quot;text/javascript&quot;&gt;\n/* &lt;![CDATA[ */!function(){try{var t=&quot;currentScript&quot;in document?document.currentScript:function(){for(var t=document.getElementsByTagName(&quot;script&quot;),e=t.length;e--;)if(t[e].getAttribute(&quot;cf-hash&quot;))return t[e]}();if(t&amp;&amp;t.previousSibling){var e,r,n,i,c=t.previousSibling,a=c.getAttribute(&quot;data-cfemail&quot;);if(a){for(e=&quot;&quot;,r=parseInt(a.substr(0,2),16),n=2;a.length-n;n+=2)i=parseInt(a.substr(n,2),16)^r,e+=String.fromCharCode(i);e=document.createTextNode(e),c.parentNode.replaceChild(e,c)}}}catch(u){}}();/* ]]&gt; */&lt;/script&gt;\n      Format settings, CABAC : No\n      Format settings, ReFrames : 2 frames\n      Codec ID : avc1\n      Codec ID/Info : Advanced Video Coding\n      Duration : 4mn 43s\n      Bit rate mode : Variable\n      Bit rate : 4 997 Kbps\n      Width : 1 280 pixels\n      Height : 720 pixels\n      Display aspect ratio : 16/9\n      Frame rate mode : Constant\n      Frame rate : 29.970 fps\n      Resolution : 24 bits\n      Colorimetry : 4:2:0\n      Scan type : Progressive\n      Bits/(Pixel*Frame) : 0.181\n      Stream size : 169 MiB (95%)\n      Language : English\n      Encoded date : UTC 2010-11-22 06:58:02\n      Tagged date : UTC 2010-11-22 06:58:09\n   Audio #2\n      Format : AAC\n      Format/Info : Advanced Audio Codec\n      Format version : Version 4\n      Format profile : LC\n      Format settings, SBR : No\n      Codec ID : 40\n      Duration : 4mn 43s\n      Bit rate mode : Constant\n      Bit rate : 256 Kbps\n      Channel(s) : 2 channels\n      Channel positions : L R\n      Sampling rate : 48.0 KHz\n      Resolution : 16 bits\n      Stream size : 8.66 MiB (5%)\n      Language : English\n      Encoded date : UTC 2010-11-22 06:58:02\n      Tagged date : UTC 2010-11-22 06:58:09","torrent":{"xt":"urn:btih:62f3a29f99b6ef02a1931fe58d9a9d3e733b011e","amp;dn":"Taylor+Swift+-+Back+To+December+%28HDTV+Live+2010%29.mp4","amp;tr":["udp%3A%2F%2Ftracker.openbittorrent.com%3A80","udp%3A%2F%2Fopen.demonii.com%3A1337","udp%3A%2F%2Ftracker.coppersurfer.tk%3A6969","udp%3A%2F%2Fexodus.desync.com%3A6969"],"infoHash":"62f3a29f99b6ef02a1931fe58d9a9d3e733b011e","infoHashBuffer":{"type":"Buffer","data":[98,243,162,159,153,182,239,2,161,147,31,229,141,154,157,62,115,59,1,30]},"announce":[],"urlList":[]}}